<?xml version="1.0" encoding="utf-8"?>
<!-- Generator: Adobe Illustrator 22.0.0, SVG Export Plug-In . SVG Version: 6.00 Build 0)  -->
<svg version="1.1" id="Layer_1" xmlns="http://www.w3.org/2000/svg" xmlns:xlink="http://www.w3.org/1999/xlink" x="0px" y="0px"
	 viewBox="0 0 448 512" style="enable-background:new 0 0 448 512;" xml:space="preserve">
<style type="text/css">
	.st0{fill:#EE3A23;}
</style>
<path class="st0" d="M224.3,269.9L113.1,381.1c-7.7,7.7-20.1,7.7-27.7,0l-18.5-18.5c-7.7-7.7-7.7-20.1,0-27.7l78.8-78.8l-78.8-78.8
	c-7.7-7.7-7.7-20.1,0-27.7l18.4-18.6c7.7-7.7,20.1-7.7,27.7,0l111.2,111.2C231.9,249.8,231.9,262.2,224.3,269.9z M381.2,242.1
	L270,130.9c-7.7-7.7-20.1-7.7-27.7,0l-18.5,18.5c-7.7,7.7-7.7,20.1,0,27.7l78.8,78.8l-78.8,78.8c-7.7,7.7-7.7,20.1,0,27.7l18.5,18.5
	c7.7,7.7,20.1,7.7,27.7,0l111.2-111.2C388.9,262.2,388.9,249.8,381.2,242.1L381.2,242.1z"/>
</svg>
