<?xml version="1.0" encoding="utf-8"?>
<!-- Generator: Adobe Illustrator 22.0.0, SVG Export Plug-In . SVG Version: 6.00 Build 0)  -->
<svg version="1.1" id="Layer_1" xmlns="http://www.w3.org/2000/svg" xmlns:xlink="http://www.w3.org/1999/xlink" x="0px" y="0px"
	 viewBox="0 0 448 512" style="enable-background:new 0 0 448 512;" xml:space="preserve">
<style type="text/css">
	.st0{fill:#F7F7F7;}
</style>
<path class="st0" d="M45,128.1c0-14.1,11.4-25.6,25.6-25.6h306.9c14.1,0,25.6,11.4,25.6,25.6s-11.4,25.6-25.6,25.6H70.6
	C56.4,153.7,45,142.3,45,128.1z M45,256c0-14.1,11.4-25.6,25.6-25.6h306.9c14.1,0,25.6,11.4,25.6,25.6s-11.4,25.6-25.6,25.6H70.6
	C56.4,281.6,45,270.1,45,256z M403,383.9c0,14.1-11.4,25.6-25.6,25.6H70.6C56.4,409.4,45,398,45,383.9s11.4-25.6,25.6-25.6h306.9
	C391.6,358.3,403,369.7,403,383.9z"/>
</svg>
