<?xml version="1.0" encoding="utf-8"?>
<!-- Generator: Adobe Illustrator 22.0.0, SVG Export Plug-In . SVG Version: 6.00 Build 0)  -->
<svg version="1.1" id="Layer_1" xmlns="http://www.w3.org/2000/svg" xmlns:xlink="http://www.w3.org/1999/xlink" x="0px" y="0px"
	 viewBox="0 0 448 512" style="enable-background:new 0 0 448 512;" xml:space="preserve">
<style type="text/css">
	.st0{fill:#F7F7F7;}
</style>
<path class="st0" d="M143.5,95.9c-33.4,0-60.4,27.1-60.4,60.4v201.4c0,33.4,27.1,60.4,60.4,60.4h181.3h20.1c11.1,0,20.1-9,20.1-20.1
	s-9-20.1-20.1-20.1v-40.3c11.1,0,20.1-9,20.1-20.1V116c0-11.1-9-20.1-20.1-20.1h-20.1H143.5z M143.5,337.6h161.1v40.3H143.5
	c-11.1,0-20.1-9-20.1-20.1C123.3,346.6,132.3,337.6,143.5,337.6z M163.6,186.5c0-5.5,4.5-10.1,10.1-10.1h120.9
	c5.5,0,10.1,4.5,10.1,10.1s-4.5,10.1-10.1,10.1H173.7C168.2,196.6,163.6,192,163.6,186.5z M173.7,216.7h120.9
	c5.5,0,10.1,4.5,10.1,10.1c0,5.5-4.5,10.1-10.1,10.1H173.7c-5.5,0-10.1-4.5-10.1-10.1C163.6,221.2,168.2,216.7,173.7,216.7z"/>
</svg>
