<?xml version="1.0" encoding="utf-8"?>
<!-- Generator: Adobe Illustrator 23.0.1, SVG Export Plug-In . SVG Version: 6.00 Build 0)  -->
<svg version="1.1" id="Capa_1" xmlns="http://www.w3.org/2000/svg" xmlns:xlink="http://www.w3.org/1999/xlink" x="0px" y="0px"
	 viewBox="0 0 448 512" style="enable-background:new 0 0 448 512;" xml:space="preserve">
<style type="text/css">
	.st0{fill:#F5F5F5;}
	.st1{fill:#404040;}
</style>
<path class="st0" d="M380.5,480h-313C30.2,480,0,449.8,0,412.5v-313C0,62.2,30.2,32,67.5,32h313c37.3,0,67.5,30.2,67.5,67.5v313
	C448,449.8,417.8,480,380.5,480z"/>
<path class="st1" d="M332.4,152.8c-0.1-0.2-0.2-0.3-0.4-0.4c-21.1-9.7-43.4-16.6-66.4-20.6c-0.4-0.1-0.9,0.1-1.1,0.5
	c-3,5.5-5.8,11.2-8.3,17c-24.7-3.7-49.8-3.7-74.5,0c-2.5-5.8-5.3-11.5-8.4-17c-0.2-0.4-0.6-0.6-1.1-0.5c-22.9,4-45.2,10.9-66.4,20.6
	c-0.2,0.1-0.3,0.2-0.4,0.4c-42.3,63.1-53.8,124.7-48.2,185.5c0,0.3,0.2,0.6,0.4,0.8c24.6,18.2,52.1,32.1,81.4,41.1
	c0.4,0.1,0.9,0,1.1-0.4c6.3-8.6,11.9-17.6,16.7-27.1c0.3-0.5,0.1-1.1-0.5-1.4c0,0-0.1,0-0.1,0c-8.8-3.4-17.3-7.4-25.4-12.1
	c-0.5-0.3-0.7-0.9-0.4-1.4c0.1-0.1,0.2-0.2,0.3-0.3c1.7-1.3,3.4-2.6,5.1-4c0.3-0.2,0.7-0.3,1.1-0.1c53.4,24.3,111.1,24.3,163.8,0
	c0.4-0.2,0.8-0.1,1.1,0.1c1.6,1.3,3.3,2.7,5.1,4c0.5,0.3,0.6,1,0.2,1.5c-0.1,0.1-0.2,0.2-0.3,0.3c-8.1,4.7-16.6,8.8-25.4,12.1
	c-0.5,0.2-0.8,0.8-0.6,1.3c0,0,0,0.1,0,0.1c4.9,9.4,10.4,18.5,16.6,27.1c0.3,0.4,0.7,0.5,1.1,0.4c29.3-9,56.9-22.9,81.5-41.1
	c0.2-0.2,0.4-0.5,0.4-0.7C387.4,268,369.2,206.9,332.4,152.8z M164.9,301.2c-16.1,0-29.3-14.7-29.3-32.8c0-18.1,13-32.8,29.3-32.8
	c16.4,0,29.6,14.9,29.3,32.8C194.2,286.5,181.3,301.2,164.9,301.2z M273.3,301.2c-16.1,0-29.3-14.7-29.3-32.8
	c0-18.1,13-32.8,29.3-32.8c16.4,0,29.6,14.9,29.3,32.8C302.6,286.5,289.7,301.2,273.3,301.2z"/>
</svg>
