<?xml version="1.0" encoding="utf-8"?>
<!-- Generator: Adobe Illustrator 22.0.0, SVG Export Plug-In . SVG Version: 6.00 Build 0)  -->
<svg version="1.1" id="Capa_1" xmlns="http://www.w3.org/2000/svg" xmlns:xlink="http://www.w3.org/1999/xlink" x="0px" y="0px"
	 viewBox="0 0 448 512" style="enable-background:new 0 0 448 512;" xml:space="preserve">
<style type="text/css">
	.st0{fill:#F5F5F5;}
</style>
<g>
	<path class="st0" d="M273.3,235.6c-16.3,0-29.3,14.7-29.3,32.8c0,18.1,13.2,32.8,29.3,32.8c16.4,0,29.3-14.7,29.3-32.8
		C302.9,250.5,289.7,235.6,273.3,235.6z"/>
	<path class="st0" d="M380.5,32h-313C30.2,32,0,62.2,0,99.5v313C0,449.8,30.2,480,67.5,480h313c37.3,0,67.5-30.2,67.5-67.5v-313
		C448,62.2,417.8,32,380.5,32z M380.4,338.5c0,0.2-0.2,0.5-0.4,0.7c-24.6,18.2-52.2,32.1-81.5,41.1c-0.4,0.1-0.8,0-1.1-0.4
		c-6.2-8.6-11.7-17.7-16.6-27.1v-0.1c-0.2-0.5,0.1-1.1,0.6-1.3c8.8-3.3,17.3-7.4,25.4-12.1c0.1-0.1,0.2-0.2,0.3-0.3
		c0.4-0.5,0.3-1.2-0.2-1.5c-1.8-1.3-3.5-2.7-5.1-4c-0.3-0.2-0.7-0.3-1.1-0.1c-52.7,24.3-110.4,24.3-163.8,0
		c-0.4-0.2-0.8-0.1-1.1,0.1c-1.7,1.4-3.4,2.7-5.1,4c-0.1,0.1-0.2,0.2-0.3,0.3c-0.3,0.5-0.1,1.1,0.4,1.4c8.1,4.7,16.6,8.7,25.4,12.1
		h0.1c0.6,0.3,0.8,0.9,0.5,1.4c-4.8,9.5-10.4,18.5-16.7,27.1c-0.2,0.4-0.7,0.5-1.1,0.4c-29.3-9-56.8-22.9-81.4-41.1
		c-0.2-0.2-0.4-0.5-0.4-0.8c-5.6-60.8,5.9-122.4,48.2-185.5c0.1-0.2,0.2-0.3,0.4-0.4c21.2-9.7,43.5-16.6,66.4-20.6
		c0.5-0.1,0.9,0.1,1.1,0.5c3.1,5.5,5.9,11.2,8.4,17c24.7-3.7,49.8-3.7,74.5,0c2.5-5.8,5.3-11.5,8.3-17c0.2-0.4,0.7-0.6,1.1-0.5
		c23,4,45.3,10.9,66.4,20.6c0.2,0.1,0.3,0.2,0.4,0.4C369.2,206.9,387.4,268,380.4,338.5z"/>
	<path class="st0" d="M164.9,235.6c-16.3,0-29.3,14.7-29.3,32.8c0,18.1,13.2,32.8,29.3,32.8c16.4,0,29.3-14.7,29.3-32.8
		C194.5,250.5,181.3,235.6,164.9,235.6z"/>
</g>
</svg>
