<?xml version="1.0" encoding="UTF-8" standalone="no"?>
<!-- Generator: Adobe Illustrator 23.0.1, SVG Export Plug-In . SVG Version: 6.00 Build 0)  -->

<svg
   xmlns:dc="http://purl.org/dc/elements/1.1/"
   xmlns:cc="http://creativecommons.org/ns#"
   xmlns:rdf="http://www.w3.org/1999/02/22-rdf-syntax-ns#"
   xmlns:svg="http://www.w3.org/2000/svg"
   xmlns="http://www.w3.org/2000/svg"
   xmlns:sodipodi="http://sodipodi.sourceforge.net/DTD/sodipodi-0.dtd"
   xmlns:inkscape="http://www.inkscape.org/namespaces/inkscape"
   version="1.1"
   id="Capa_1"
   x="0px"
   y="0px"
   viewBox="0 0 448 512"
   style="enable-background:new 0 0 448 512;"
   xml:space="preserve"
   sodipodi:docname="dollarhand.svg"
   inkscape:version="0.92.3 (2405546, 2018-03-11)"><metadata
   id="metadata13"><rdf:RDF><cc:Work
       rdf:about=""><dc:format>image/svg+xml</dc:format><dc:type
         rdf:resource="http://purl.org/dc/dcmitype/StillImage" /><dc:title></dc:title></cc:Work></rdf:RDF></metadata><defs
   id="defs11" /><sodipodi:namedview
   pagecolor="#ffffff"
   bordercolor="#666666"
   borderopacity="1"
   objecttolerance="10"
   gridtolerance="10"
   guidetolerance="10"
   inkscape:pageopacity="0"
   inkscape:pageshadow="2"
   inkscape:window-width="987"
   inkscape:window-height="712"
   id="namedview9"
   showgrid="false"
   inkscape:zoom="0.921875"
   inkscape:cx="242.15505"
   inkscape:cy="203.32401"
   inkscape:window-x="0"
   inkscape:window-y="0"
   inkscape:window-maximized="0"
   inkscape:current-layer="Capa_1" />
<style
   type="text/css"
   id="style2">
	.st0{fill:#F5F5F5;}
	.st1{fill:#404040;}
</style>
<path
   class="st0"
   d="M380.5,480h-313C30.2,480,0,449.8,0,412.5v-313C0,62.2,30.2,32,67.5,32h313c37.3,0,67.5,30.2,67.5,67.5v313  C448,449.8,417.8,480,380.5,480z"
   id="path4" />

<path
   d="m 84.969491,166.73051 c 11.05,0 19.999999,8.95 19.999999,20 v 20 40 20.1 c 0,8.5 3.35,16.65 9.35,22.65 l 25.55,25.55 c 4.15,4.15 10.65,4.8 15.5,1.55 6.45,-4.3 7.35,-13.45 1.85,-18.9 l -7.6,-7.6 -16,-16 c -6.25,-6.25 -6.25,-16.4 0,-22.65 6.25,-6.25 16.4,-6.25 22.65,0 l 16,16 c 6.75,6.75 13.5,13.5 20.25,20.25 10.5,10.5 16.4,24.75 16.4,39.6 v 39.45 c 0,13.25 -10.75,24 -24,24 h -33.3 c -8.5,0 -16.65,-3.35 -22.65,-9.35 l -49.949999,-49.95 c -9,-9 -14.05,-21.2 -14.05,-33.95 v -50.75 -32 -28 c 0,-11.05 8.95,-20 20,-20 z m 279.999999,0 c 11.05,0 20,8.95 20,20 v 28 32 50.75 c 0,12.75 -5.05,24.95 -14.05,33.95 l -49.95,49.95 c -6,6 -14.15,9.35 -22.65,9.35 h -33.35 c -13.25,0 -24,-10.75 -24,-24 v -39.45 c 0,-14.85 5.9,-29.1 16.4,-39.6 l 12.65,-12.65 v 0 l 7.6,-7.6 16,-16 c 6.25,-6.25 16.4,-6.25 22.65,0 6.25,6.25 6.25,16.4 0,22.65 l -16,16 -7.6,7.6 c -5.5,5.5 -4.6,14.6 1.85,18.9 4.85,3.25 11.35,2.6 15.5,-1.55 l 25.55,-25.55 c 6,-6 9.35,-14.15 9.35,-22.65 v -20.1 -40 -20 c 0,-11.05 8.95,-20 20,-20 z"
   id="path2"
   inkscape:connector-curvature="0"
   sodipodi:nodetypes="ssccssscccsssccsssssssccssssccsssssssscccssscscsssccsss"
   style="fill:#404040;fill-opacity:1;stroke-width:0.5" /><path
   d="m 238.6556,125.57797 v 5.25 c 3.2,0.6 6.3,1.35 9.1,2.1 6.4,1.7 10.2,8.3 8.5,14.7 -1.7,6.4 -8.3,10.2 -14.7,8.5 -5.45,-1.45 -10.55,-2.45 -15.1,-2.5 -3.65,-0.05 -7.35,0.85 -9.7,2.2 -1.05,0.65 -1.55,1.2 -1.75,1.5 -0.15,0.25 -0.35,0.6 -0.35,1.4 v 0.3 c 0.1,0.1 0.45,0.6 1.65,1.3 2.9,1.75 7.2,3.1 13.7,5.05 l 0.45,0.15 c 5.55,1.65 12.95,3.9 18.95,7.65 6.85,4.3 13.05,11.45 13.2,22.45 0.15,11.25 -5.7,19.45 -13.35,24.25 -3.35,2.05 -6.95,3.5 -10.65,4.4 v 5.3 c 0,6.65 -5.35,12 -12,12 -6.65,0 -12,-5.35 -12,-12 v -5.7 c -4.75,-1.15 -9.1,-2.65 -12.8,-3.9 -1.05,-0.35 -2.05,-0.7 -3,-1 -6.3,-2.1 -9.7,-8.9 -7.6,-15.2 2.1,-6.3 8.9,-9.7 15.2,-7.6 1.3,0.45 2.5,0.85 3.65,1.25 6.8,2.3 11.7,3.95 16.95,4.15 4,0.15 7.55,-0.8 9.6,-2.05 0.95,-0.6 1.4,-1.1 1.6,-1.45 0.2,-0.3 0.45,-0.9 0.4,-2.05 v -0.1 c 0,-0.5 0,-1.05 -2,-2.3 -2.85,-1.8 -7.15,-3.2 -13.55,-5.15 l -0.95,-0.3 c -5.4,-1.6 -12.5,-3.75 -18.2,-7.2 -6.75,-4.05 -13.25,-11 -13.3,-22.05 -0.05,-11.45 6.45,-19.3 13.85,-23.7 3.2,-1.9 6.65,-3.2 10.1,-4.1 v -5.55 c 0,-6.65 5.35,-12 12,-12 6.65,0 12,5.35 12,12 z"
   id="path2-8"
   inkscape:connector-curvature="0"
   sodipodi:nodetypes="cccsccccsccccccccssscccsccccccscccccccsscc"
   style="fill:#404040;fill-opacity:1;stroke-width:0.5" /></svg>