<?xml version="1.0" encoding="utf-8"?>
<!-- Generator: Adobe Illustrator 22.0.0, SVG Export Plug-In . SVG Version: 6.00 Build 0)  -->
<svg version="1.1" id="Capa_1" xmlns="http://www.w3.org/2000/svg" xmlns:xlink="http://www.w3.org/1999/xlink" x="0px" y="0px"
	 viewBox="0 0 448 512" style="enable-background:new 0 0 448 512;" xml:space="preserve">
<style type="text/css">
	.st0{fill:#F5F5F5;}
</style>
<g>
	<path class="st0" d="M381.5,32h-313C31.2,32,1,62.2,1,99.5v313C1,449.8,31.2,480,68.5,480h313c37.3,0,67.5-30.2,67.5-67.5v-313
		C449,62.2,418.8,32,381.5,32z M121.4,219.4c8.6-8.6,22.5-8.6,31.1,0l50.5,50.5V103c0-12.2,9.8-22,22-22s22,9.8,22,22v166.9
		l50.4-50.5c8.6-8.6,22.5-8.6,31.1,0s8.6,22.5,0,31.1l-88,88c-8.6,8.6-22.5,8.6-31.1,0l-88-88C112.8,241.9,112.8,228,121.4,219.4z
		 M401,389c0,24.3-19.7,44-44,44H93c-24.3,0-44-19.7-44-44v-22c0-24.3,19.7-44,44-44h69.8l31.1,31.1c17.2,17.2,45,17.2,62.2,0
		l31.1-31.1H357c24.3,0,44,19.7,44,44V389z"/>
</g>
</svg>
