<?xml version="1.0" encoding="utf-8"?>
<!-- Generator: Adobe Illustrator 22.0.0, SVG Export Plug-In . SVG Version: 6.00 Build 0)  -->
<svg version="1.1" id="Layer_1" xmlns="http://www.w3.org/2000/svg" xmlns:xlink="http://www.w3.org/1999/xlink" x="0px" y="0px"
	 viewBox="0 0 448 512" style="enable-background:new 0 0 448 512;" xml:space="preserve">
<style type="text/css">
	.st0{fill:#EE3A23;}
</style>
<path class="st0" d="M212.2,106.4c8.3-3,17.4-3,25.8,0l114.8,41c15.2,5.4,25.3,19.8,25.3,36v145.2c0,16.1-10.2,30.6-25.4,36
	l-114.8,41c-8.3,3-17.4,3-25.8,0l-114.8-41C82.2,359.2,72,344.8,72,328.6V183.5c0-16.1,10.2-30.6,25.4-36
	C97.4,147.4,212.2,106.4,212.2,106.4z M225,142.5l-103.8,37.1L225,216.6l103.8-37.1L225,142.5z M244.1,362.8l95.6-34.1V216.3
	l-95.6,34.1V362.8z"/>
<path class="st0" d="M831.1,62.3h-45.3c-7.1,0-12.9,5.8-12.9,12.9v38.8h-38.8V75.2c0-7.1-5.8-12.9-12.9-12.9h-64.6
	c-7.1,0-12.9,5.8-12.9,12.9v38.8h-38.6V75.2c0-7.1-5.8-12.9-12.9-12.9h-45.3c-7.1,0-12.9,5.8-12.9,12.9v142.1l51.7,25.8
	c0,39-1.2,76.6-10.7,129.2h227.9c-9.5-52.5-10.7-90.7-10.7-129.2l51.7-25.8V75.2C844,68,838.2,62.3,831.1,62.3z M714.8,294.8h-51.7
	v-51.7c0-14.3,11.6-25.8,25.8-25.8s25.8,11.6,25.8,25.8V294.8z M831.1,398.1H546.9c-7.1,0-12.9,5.8-12.9,12.9v25.8
	c0,7.1,5.8,12.9,12.9,12.9h284.2c7.1,0,12.9-5.8,12.9-12.9V411C844,403.9,838.2,398.1,831.1,398.1z"/>
</svg>
