<?xml version="1.0" encoding="utf-8"?>
<!-- Generator: Adobe Illustrator 22.0.0, SVG Export Plug-In . SVG Version: 6.00 Build 0)  -->
<svg version="1.1" id="Layer_1" xmlns="http://www.w3.org/2000/svg" xmlns:xlink="http://www.w3.org/1999/xlink" x="0px" y="0px"
	 viewBox="0 0 448 512" style="enable-background:new 0 0 448 512;" xml:space="preserve">
<style type="text/css">
	.st0{fill:#F7F7F7;}
</style>
<path class="st0" d="M283.7,88.8c31.1,0,56.6,23.7,59.5,54.1l63.9,19.6c19,5.8,31.9,23.4,31.9,43.2c0,16.3-8.7,31.3-22.9,39.3
	l-107.9,61.3l69,69H415c13.2,0,23.9,10.7,23.9,23.9s-10.7,23.9-23.9,23.9h-47.8c-6.3,0-12.4-2.5-16.9-7L268,333.8
	c8.7-26.9,2.4-57.5-19-78.9c-30.3-30.3-79.3-30.3-109.6-0.1L84.5,307c-4.8,4.6-5,12.1-0.4,16.9c4.6,4.8,12.1,4.9,16.9,0.4L156,272
	l0.1-0.1l0.1-0.1c2.6-2.6,5.4-4.9,8.4-6.9c20.8-13.8,49.2-11.5,67.5,6.9c18.4,18.4,20.7,46.9,6.7,67.8c-1.9,2.8-4.2,5.6-6.7,8.1
	l-27.6,27.6h67.3c13.2,0,23.9,10.7,23.9,23.9s-10.7,23.9-23.9,23.9H56.9c-26.3,0-47.8-21.4-47.8-47.8
	c0-124.2,94.8-226.2,215.9-237.7C230.1,109.9,254.5,88.8,283.7,88.8z M283.7,166.5c9.9,0,17.9-8,17.9-17.9c0-9.9-8-17.9-17.9-17.9
	s-17.9,8-17.9,17.9C265.8,158.4,273.8,166.5,283.7,166.5z"/>
</svg>
