<?xml version="1.0" encoding="utf-8"?>
<!-- Generator: Adobe Illustrator 22.0.0, SVG Export Plug-In . SVG Version: 6.00 Build 0)  -->
<svg version="1.1" id="Layer_1" xmlns="http://www.w3.org/2000/svg" xmlns:xlink="http://www.w3.org/1999/xlink" x="0px" y="0px"
	 viewBox="0 0 448 512" style="enable-background:new 0 0 448 512;" xml:space="preserve">
<style type="text/css">
	.st0{fill:#EE3A23;}
</style>
<path class="st0" d="M284,376v25c0,8.3-6.7,15-15,15H99c-8.3,0-15-6.7-15-15V171c0-8.3,6.7-15,15-15h45v185c0,19.3,15.7,35,35,35
	H284z M284,161V96H179c-8.3,0-15,6.7-15,15v230c0,8.3,6.7,15,15,15h170c8.3,0,15-6.7,15-15V176h-65C290.7,176,284,169.3,284,161z
	 M359.6,141.6l-41.3-41.2c-2.8-2.8-6.6-4.4-10.6-4.4H304v60h60v-3.8C364,148.2,362.4,144.4,359.6,141.6L359.6,141.6z"/>
</svg>
