<?xml version="1.0" encoding="utf-8"?>
<!-- Generator: Adobe Illustrator 22.0.0, SVG Export Plug-In . SVG Version: 6.00 Build 0)  -->
<svg version="1.1" id="Layer_1" xmlns="http://www.w3.org/2000/svg" xmlns:xlink="http://www.w3.org/1999/xlink" x="0px" y="0px"
	 viewBox="0 0 448 512" style="enable-background:new 0 0 448 512;" xml:space="preserve">
<style type="text/css">
	.st0{fill:#EE3A23;}
</style>
<path class="st0" d="M366.1,63.3h-45.3c-7.1,0-12.9,5.8-12.9,12.9v38.8h-38.8V76.2c0-7.1-5.8-12.9-12.9-12.9h-64.6
	c-7.1,0-12.9,5.8-12.9,12.9v38.8h-38.6V76.2c0-7.1-5.8-12.9-12.9-12.9H81.9C74.8,63.3,69,69,69,76.2v142.1l51.7,25.8
	c0,39-1.2,76.6-10.7,129.2h227.9c-9.5-52.5-10.7-90.7-10.7-129.2l51.7-25.8V76.2C379,69,373.2,63.3,366.1,63.3z M249.8,295.8h-51.7
	v-51.7c0-14.3,11.6-25.8,25.8-25.8s25.8,11.6,25.8,25.8V295.8z M366.1,399.1H81.9c-7.1,0-12.9,5.8-12.9,12.9v25.8
	c0,7.1,5.8,12.9,12.9,12.9h284.2c7.1,0,12.9-5.8,12.9-12.9V412C379,404.9,373.2,399.1,366.1,399.1z"/>
</svg>
