<?xml version="1.0" encoding="utf-8"?>
<!-- Generator: Adobe Illustrator 22.0.0, SVG Export Plug-In . SVG Version: 6.00 Build 0)  -->
<svg version="1.1"
	 id="Capa_1" inkscape:version="0.92.3 (2405546, 2018-03-11)" sodipodi:docname="patreon.svg" xmlns:cc="http://creativecommons.org/ns#" xmlns:dc="http://purl.org/dc/elements/1.1/" xmlns:inkscape="http://www.inkscape.org/namespaces/inkscape" xmlns:rdf="http://www.w3.org/1999/02/22-rdf-syntax-ns#" xmlns:sodipodi="http://sodipodi.sourceforge.net/DTD/sodipodi-0.dtd" xmlns:svg="http://www.w3.org/2000/svg"
	 xmlns="http://www.w3.org/2000/svg" xmlns:xlink="http://www.w3.org/1999/xlink" x="0px" y="0px" viewBox="0 0 448 512"
	 style="enable-background:new 0 0 448 512;" xml:space="preserve">
<style type="text/css">
	.st0{fill:#F5F5F5;}
</style>
<sodipodi:namedview  bordercolor="#666666" borderopacity="1" gridtolerance="10" guidetolerance="10" id="namedview9" inkscape:current-layer="Capa_1" inkscape:cx="331.18077" inkscape:cy="162.05986" inkscape:pageopacity="0" inkscape:pageshadow="2" inkscape:window-height="712" inkscape:window-maximized="0" inkscape:window-width="987" inkscape:window-x="816" inkscape:window-y="87" inkscape:zoom="0.65186406" objecttolerance="10" pagecolor="#ffffff" showgrid="false">
	</sodipodi:namedview>
<path class="st0" d="M380.5,32h-313C30.2,32,0,62.2,0,99.5v313C0,449.8,30.2,480,67.5,480h313c37.3,0,67.5-30.2,67.5-67.5v-313
	C448,62.2,417.8,32,380.5,32z M297.9,285.4c-23.9,5.9-43.3,11.6-58.3,31.8c-21.2,28.4-28,87.4-73.7,86.8
	c-61.6-0.8-65.7-110-65.2-151.4c0.6-50.4,15.9-101,64.8-124.1c40.4-19,96.1-21,138.3-7.3c34,11,63,41.5,63.1,78.8
	C366.9,242.9,339,275.2,297.9,285.4z"/>
</svg>
