<?xml version="1.0" encoding="UTF-8" standalone="no"?>
<!-- Generator: Adobe Illustrator 23.0.1, SVG Export Plug-In . SVG Version: 6.00 Build 0)  -->

<svg
   xmlns:dc="http://purl.org/dc/elements/1.1/"
   xmlns:cc="http://creativecommons.org/ns#"
   xmlns:rdf="http://www.w3.org/1999/02/22-rdf-syntax-ns#"
   xmlns:svg="http://www.w3.org/2000/svg"
   xmlns="http://www.w3.org/2000/svg"
   xmlns:sodipodi="http://sodipodi.sourceforge.net/DTD/sodipodi-0.dtd"
   xmlns:inkscape="http://www.inkscape.org/namespaces/inkscape"
   version="1.1"
   id="Capa_1"
   x="0px"
   y="0px"
   viewBox="0 0 448 512"
   style="enable-background:new 0 0 448 512;"
   xml:space="preserve"
   sodipodi:docname="patreon.svg"
   inkscape:version="0.92.3 (2405546, 2018-03-11)"><metadata
   id="metadata13"><rdf:RDF><cc:Work
       rdf:about=""><dc:format>image/svg+xml</dc:format><dc:type
         rdf:resource="http://purl.org/dc/dcmitype/StillImage" /><dc:title></dc:title></cc:Work></rdf:RDF></metadata><defs
   id="defs11" /><sodipodi:namedview
   pagecolor="#ffffff"
   bordercolor="#666666"
   borderopacity="1"
   objecttolerance="10"
   gridtolerance="10"
   guidetolerance="10"
   inkscape:pageopacity="0"
   inkscape:pageshadow="2"
   inkscape:window-width="987"
   inkscape:window-height="712"
   id="namedview9"
   showgrid="false"
   inkscape:zoom="0.65186406"
   inkscape:cx="331.18077"
   inkscape:cy="162.05986"
   inkscape:window-x="816"
   inkscape:window-y="87"
   inkscape:window-maximized="0"
   inkscape:current-layer="Capa_1" />
<style
   type="text/css"
   id="style2">
	.st0{fill:#F5F5F5;}
	.st1{fill:#404040;}
</style>
<path
   class="st0"
   d="M380.5,480h-313C30.2,480,0,449.8,0,412.5v-313C0,62.2,30.2,32,67.5,32h313c37.3,0,67.5,30.2,67.5,67.5v313  C448,449.8,417.8,480,380.5,480z"
   id="path4" />

<path
   inkscape:connector-curvature="0"
   d="m 366.87765,199.96109 c -0.0514,-37.23992 -29.05471,-67.761 -63.08373,-78.77365 -42.25747,-13.67536 -97.99044,-11.69319 -138.34134,7.34536 -48.9061,23.07848 -64.26927,73.63189 -64.84178,124.05028 -0.46987,41.45271 3.6673,150.63134 65.24956,151.40909 45.7573,0.58061 52.57066,-58.37949 73.74261,-86.77527 15.0634,-20.20245 34.45841,-25.90861 58.33355,-31.81731 41.03414,-10.15659 69.00054,-42.54102 68.94113,-85.4385 z"
   id="path2-1"
   style="fill:#404040;fill-opacity:1;stroke-width:0.27005023" /></svg>