<?xml version="1.0" encoding="utf-8"?>
<!-- Generator: Adobe Illustrator 22.0.0, SVG Export Plug-In . SVG Version: 6.00 Build 0)  -->
<svg version="1.1" id="Layer_1" xmlns="http://www.w3.org/2000/svg" xmlns:xlink="http://www.w3.org/1999/xlink" x="0px" y="0px"
	 viewBox="0 0 448 512" style="enable-background:new 0 0 448 512;" xml:space="preserve">
<style type="text/css">
	.st0{fill:#FFFFFF;}
	.st1{fill:#F7F7F7;}
</style>
<path class="st0" d="M168,188.1c0-25.9,21.1-47,47-47h23.5c25.9,0,47,21.1,47,47v2.6c0,16-8.2,30.9-21.6,39.5l-31,19.9
	c-18.5,11.9-29.7,32.4-29.7,54.4v1c0,13,10.5,23.5,23.5,23.5c13,0,23.5-10.5,23.5-23.5v-1c0-6,3.1-11.6,8.1-14.8l31-19.9
	c26.9-17.3,43.2-47.1,43.2-79.1V188c0-51.9-42.1-94-94-94H215c-51.9,0.1-94,42.2-94,94.1c0,13,10.5,23.5,23.5,23.5
	C157.5,211.6,168,201.1,168,188.1z M226.8,423.2c16.2,0,29.4-13.2,29.4-29.4c0-16.2-13.2-29.4-29.4-29.4s-29.4,13.2-29.4,29.4
	C197.4,410.1,210.6,423.2,226.8,423.2z"/>
<path class="st1" d="M796.7,230.8c31.1,0,56.6,23.7,59.5,54.1l63.9,19.6c19,5.8,31.9,23.4,31.9,43.2c0,16.3-8.7,31.3-22.9,39.3
	l-107.9,61.3l69,69H928c13.2,0,23.9,10.7,23.9,23.9s-10.7,23.9-23.9,23.9h-47.8c-6.3,0-12.4-2.5-16.9-7L781,475.8
	c8.7-26.9,2.4-57.5-19-78.9c-30.3-30.3-79.3-30.3-109.6-0.1L597.5,449c-4.8,4.6-5,12.1-0.4,16.9c4.6,4.8,12.1,4.9,16.9,0.4L669,414
	l0.1-0.1l0.1-0.1c2.6-2.6,5.4-4.9,8.4-6.9c20.8-13.8,49.2-11.5,67.5,6.9c18.4,18.4,20.7,46.9,6.7,67.8c-1.9,2.8-4.2,5.6-6.7,8.1
	l-27.6,27.6h67.3c13.2,0,23.9,10.7,23.9,23.9s-10.7,23.9-23.9,23.9H569.9c-26.3,0-47.8-21.4-47.8-47.8
	c0-124.2,94.8-226.2,215.9-237.7C743.1,251.9,767.5,230.8,796.7,230.8z M796.7,308.5c9.9,0,17.9-8,17.9-17.9s-8-17.9-17.9-17.9
	c-9.9,0-17.9,8-17.9,17.9S786.8,308.5,796.7,308.5z"/>
</svg>
