<?xml version="1.0" encoding="utf-8"?>
<!-- Generator: Adobe Illustrator 22.0.0, SVG Export Plug-In . SVG Version: 6.00 Build 0)  -->
<svg version="1.1" id="Layer_1" xmlns="http://www.w3.org/2000/svg" xmlns:xlink="http://www.w3.org/1999/xlink" x="0px" y="0px"
	 viewBox="0 0 448 512" style="enable-background:new 0 0 448 512;" xml:space="preserve">
<style type="text/css">
	.st0{fill:#F7F7F7;}
</style>
<path class="st0" d="M339.5,99.5h-36.8c-5.8,0-10.5,4.7-10.5,10.5v31.5h-31.5V110c0-5.8-4.7-10.5-10.5-10.5h-52.5
	c-5.8,0-10.5,4.7-10.5,10.5v31.5h-31.4V110c0-5.8-4.7-10.5-10.5-10.5h-36.8c-5.8,0-10.5,4.7-10.5,10.5v115.5l42,21
	c0,31.7-1,62.3-8.7,105h185.3c-7.7-42.7-8.7-73.7-8.7-105l42-21V110C350,104.2,345.3,99.5,339.5,99.5z M245,288.5h-42v-42
	c0-11.6,9.4-21,21-21s21,9.4,21,21V288.5z M339.5,372.5h-231c-5.8,0-10.5,4.7-10.5,10.5v21c0,5.8,4.7,10.5,10.5,10.5h231
	c5.8,0,10.5-4.7,10.5-10.5v-21C350,377.2,345.3,372.5,339.5,372.5z"/>
</svg>
