<?xml version="1.0" encoding="utf-8"?>
<!-- Generator: Adobe Illustrator 22.0.0, SVG Export Plug-In . SVG Version: 6.00 Build 0)  -->
<svg version="1.1" id="Layer_1" xmlns="http://www.w3.org/2000/svg" xmlns:xlink="http://www.w3.org/1999/xlink" x="0px" y="0px"
	 viewBox="0 0 512 512" style="enable-background:new 0 0 512 512;" xml:space="preserve">
<style type="text/css">
	.st0{fill:#F5F5F5;}
</style>
<path class="st0" d="M496.6,351.7L419.9,275c-3.5-3.5-8.2-5.4-13.1-5.4h-12.5c21.2-27.2,33.9-61.3,33.9-98.5
	C428.1,82.6,356.5,11,268.1,11S108,82.6,108,171.1s71.7,160.1,160.1,160.1c37.2,0,71.3-12.6,98.5-33.9v12.5c0,4.9,1.9,9.6,5.4,13.1
	l76.7,76.7c7.2,7.2,18.9,7.2,26.1,0l21.8-21.8C503.8,370.6,503.8,358.9,496.6,351.7z M268.1,269.6c-54.4,0-98.5-44-98.5-98.5
	c0-54.4,44-98.5,98.5-98.5c54.4,0,98.5,44,98.5,98.5C366.6,225.5,322.5,269.6,268.1,269.6z"/>
</svg>
