<?xml version="1.0" encoding="utf-8"?>
<!-- Generator: Adobe Illustrator 22.0.0, SVG Export Plug-In . SVG Version: 6.00 Build 0)  -->
<svg version="1.1"
	 id="Capa_1" inkscape:version="0.92.3 (2405546, 2018-03-11)" sodipodi:docname="square-poll-horizontal-solid.svg" xmlns:cc="http://creativecommons.org/ns#" xmlns:dc="http://purl.org/dc/elements/1.1/" xmlns:inkscape="http://www.inkscape.org/namespaces/inkscape" xmlns:rdf="http://www.w3.org/1999/02/22-rdf-syntax-ns#" xmlns:sodipodi="http://sodipodi.sourceforge.net/DTD/sodipodi-0.dtd" xmlns:svg="http://www.w3.org/2000/svg"
	 xmlns="http://www.w3.org/2000/svg" xmlns:xlink="http://www.w3.org/1999/xlink" x="0px" y="0px" viewBox="0 0 448 512"
	 style="enable-background:new 0 0 448 512;" xml:space="preserve">
<style type="text/css">
	.st0{fill:#F5F5F5;}
</style>
<sodipodi:namedview  bordercolor="#666666" borderopacity="1" gridtolerance="10" guidetolerance="10" id="namedview9" inkscape:current-layer="Capa_1" inkscape:cx="740.21712" inkscape:cy="-83.74731" inkscape:pageopacity="0" inkscape:pageshadow="2" inkscape:window-height="1057" inkscape:window-maximized="1" inkscape:window-width="1920" inkscape:window-x="-8" inkscape:window-y="-8" inkscape:zoom="0.32593203" objecttolerance="10" pagecolor="#ffffff" showgrid="false">
	</sodipodi:namedview>
<path id="path2" inkscape:connector-curvature="0" class="st0" d="M449.1,96.9c0-35.3-28.7-64-64-64h-320c-35.3,0-64,28.7-64,64v320
	c0,35.3,28.7,64,64,64h320c35.3,0,64-28.7,64-64V96.9z M257.1,160.9c0,17.7-14.3,32-32,32h-96c-17.7,0-32-14.3-32-32s14.3-32,32-32
	h96C242.8,128.9,257.1,143.2,257.1,160.9z M321.1,224.9c17.7,0,32,14.3,32,32s-14.3,32-32,32h-192c-17.7,0-32-14.3-32-32
	s14.3-32,32-32H321.1z M193.1,352.9c0,17.7-14.3,32-32,32h-32c-17.7,0-32-14.3-32-32s14.3-32,32-32h32
	C178.8,320.9,193.1,335.2,193.1,352.9z"/>
</svg>
