<?xml version="1.0" encoding="UTF-8" standalone="no"?>
<!-- Generator: Adobe Illustrator 23.0.1, SVG Export Plug-In . SVG Version: 6.00 Build 0)  -->

<svg
   xmlns:dc="http://purl.org/dc/elements/1.1/"
   xmlns:cc="http://creativecommons.org/ns#"
   xmlns:rdf="http://www.w3.org/1999/02/22-rdf-syntax-ns#"
   xmlns:svg="http://www.w3.org/2000/svg"
   xmlns="http://www.w3.org/2000/svg"
   xmlns:sodipodi="http://sodipodi.sourceforge.net/DTD/sodipodi-0.dtd"
   xmlns:inkscape="http://www.inkscape.org/namespaces/inkscape"
   version="1.1"
   id="Capa_1"
   x="0px"
   y="0px"
   viewBox="0 0 448 512"
   style="enable-background:new 0 0 448 512;"
   xml:space="preserve"
   sodipodi:docname="square-poll-horizontal-solid.svg"
   inkscape:version="0.92.3 (2405546, 2018-03-11)"><metadata
   id="metadata13"><rdf:RDF><cc:Work
       rdf:about=""><dc:format>image/svg+xml</dc:format><dc:type
         rdf:resource="http://purl.org/dc/dcmitype/StillImage" /><dc:title></dc:title></cc:Work></rdf:RDF></metadata><defs
   id="defs11" /><sodipodi:namedview
   pagecolor="#ffffff"
   bordercolor="#666666"
   borderopacity="1"
   objecttolerance="10"
   gridtolerance="10"
   guidetolerance="10"
   inkscape:pageopacity="0"
   inkscape:pageshadow="2"
   inkscape:window-width="1920"
   inkscape:window-height="1057"
   id="namedview9"
   showgrid="false"
   inkscape:zoom="0.32593203"
   inkscape:cx="740.21712"
   inkscape:cy="-83.74731"
   inkscape:window-x="-8"
   inkscape:window-y="-8"
   inkscape:window-maximized="1"
   inkscape:current-layer="Capa_1" />
<style
   type="text/css"
   id="style2">
	.st0{fill:#F5F5F5;}
	.st1{fill:#404040;}
</style>
<path
   class="st0"
   d="M 361.93946,458.30508 H 93.653753 c -31.971429,0 -57.857143,-26.90944 -57.857143,-60.14527 V 119.26392 c 0,-33.235833 25.885714,-60.145276 57.857143,-60.145276 H 361.93946 c 31.97144,0 57.85715,26.909443 57.85715,60.145276 v 278.89589 c 0,33.23583 -25.88571,60.14527 -57.85715,60.14527 z"
   id="path4"
   inkscape:connector-curvature="0"
   style="fill:#404040;stroke-width:0.87392765;fill-opacity:1" />

<path
   inkscape:connector-curvature="0"
   d="m 449.11667,96.891347 c 0,-35.300009 -28.7,-64.000012 -64,-64.000012 H 65.116675 c -35.3,0 -64.0000002,28.700003 -64.0000002,64.000012 V 416.89135 c 0,35.3 28.7000002,64 64.0000002,64 H 385.11667 c 35.3,0 64,-28.7 64,-64 z m -192,64.000003 c 0,17.7 -14.3,32 -32,32 h -96 c -17.7,0 -31.999993,-14.3 -31.999993,-32 0,-17.7 14.299993,-32 31.999993,-32 h 96 c 17.7,0 32,14.3 32,32 z m 64,64 c 17.7,0 32,14.3 32,32 0,17.7 -14.3,32 -32,32 h -192 c -17.7,0 -31.999993,-14.3 -31.999993,-32 0,-17.7 14.299993,-32 31.999993,-32 z m -128,128 c 0,17.7 -14.3,32 -32,32 h -32 c -17.7,0 -31.999993,-14.3 -31.999993,-32 0,-17.7 14.299993,-32 31.999993,-32 h 32 c 17.7,0 32,14.3 32,32 z"
   id="path2"
   style="fill:#f5f5f5;fill-opacity:1" /></svg>