<?xml version="1.0" encoding="utf-8"?>
<!-- Generator: Adobe Illustrator 22.0.0, SVG Export Plug-In . SVG Version: 6.00 Build 0)  -->
<svg version="1.1" id="Layer_1" xmlns="http://www.w3.org/2000/svg" xmlns:xlink="http://www.w3.org/1999/xlink" x="0px" y="0px"
	 viewBox="0 0 448 512" style="enable-background:new 0 0 448 512;" xml:space="preserve">
<style type="text/css">
	.st0{fill:#EE3A23;}
</style>
<path class="st0" d="M325.3,175v-60.8c0-11.2-9-20.3-20.3-20.3H82.3C71,94,62,103,62,114.3V175c0,11.2,9,20.3,20.3,20.3H305
	C316.2,195.3,325.3,186.2,325.3,175z M345.5,134.5v81c0,11.2-9,20.3-20.3,20.3H224c-22.4,0-40.5,18.2-40.5,40.5v20.3
	c-11.2,0-20.3,9-20.3,20.3v81c0,11.2,9,20.3,20.3,20.3H224c11.2,0,20.3-9,20.3-20.3v-81c0-11.2-9-20.3-20.3-20.3v-20.3h101.3
	c33.5,0,60.8-27.2,60.8-60.8V175C386,152.6,367.8,134.5,345.5,134.5z"/>
</svg>
